# xmcd
#
# Track frame offsets: 
#        150
#        16755
#        34936
#        51271
#        68288
#        83947
#        98399
#        114281
#        128188
#        142704
#        158044
#        174656
#        187544
#        203082
#        218799
#        231499
#        248691
#        262573
#        279123
#        294541
#        305790
#        320492
#        333923
#
# Disc length: 4600 seconds
#
# Revision: 0
# Processed by: cddbd v1.5.2PL0 Copyright (c) Steve Scherf et al.
# Submitted via: ExactAudioCopy v1.1
#
DISCID=2911f617
DTITLE=Various Artist - De Foute CD 2019 - CD 3
DYEAR=2019
DGENRE=Pop
TTITLE0=Christoff - Sweet Caroline
TTITLE1=Marco Borsato - Dromen Zijn Bedrog
TTITLE2=Tom Waes - Dos Cervezas
TTITLE3=Scooter - How Much Is The Fish?
TTITLE4=X-Session - On And On
TTITLE5=Milk Inc. - Walk On Water
TTITLE6=Willy Sommers - Laat De Zon In Je Hart
TTITLE7=Sandra Kim - J'Aime La Vie
TTITLE8=Spring - Spring
TTITLE9=Jebroer and DJ Paul Elstak - Kind Van De Duivel
TTITLE10=Good Shape - Take My Love
TTITLE11=2 Fabiola Feat. Loredana - She's After My Piano
TTITLE12=Sash! - Ecuador
TTITLE13=Alvaro Soler - Sofia
TTITLE14=The Radios - I'm Into Folk
TTITLE15=The Underdog Project Vs. Sunclub - Summer Jam 2003
TTITLE16=Safri Duo - Played-A-Live (The Bongo Song)
TTITLE17=Eiffel 65 - Blue (Da Ba Dee)
TTITLE18=Noordkaap - Ik Hou Van U
TTITLE19=Eddy Wally - Chérie
TTITLE20=André Van Duin - Er Staat Een Paard In De Gang
TTITLE21=De Deurzakkers - La La La Van Strauss En Zo
TTITLE22=De Romeo's, Dorothee Vegas and Like Maarten - Viva De Romeo's (
TTITLE22=Remix)
EXTD=
EXTT0=
EXTT1=
EXTT2=
EXTT3=
EXTT4=
EXTT5=
EXTT6=
EXTT7=
EXTT8=
EXTT9=
EXTT10=
EXTT11=
EXTT12=
EXTT13=
EXTT14=
EXTT15=
EXTT16=
EXTT17=
EXTT18=
EXTT19=
EXTT20=
EXTT21=
EXTT22=
PLAYORDER=
